<?xml version="1.0" encoding="utf-8"?>
<!-- Generator: Adobe Illustrator 17.0.2, SVG Export Plug-In . SVG Version: 6.00 Build 0)  -->
<!DOCTYPE svg PUBLIC "-//W3C//DTD SVG 1.1//EN" "http://www.w3.org/Graphics/SVG/1.1/DTD/svg11.dtd">
<svg version="1.1" id="Layer_1" xmlns="http://www.w3.org/2000/svg" xmlns:xlink="http://www.w3.org/1999/xlink" x="0px" y="0px"
	 width="512px" height="512px" viewBox="-1065.5 -199 512 512" enable-background="new -1065.5 -199 512 512" xml:space="preserve">
<g transform="matrix(1 0 0 -1 0 1556)">
	<path d="M-556.918,1648.698c-0.166-1.662-0.665-3.075-1.496-4.239c-0.665-0.499-1.454-1.205-2.369-2.119
		c-0.914-0.914-1.621-1.371-2.119-1.371c-11.47-0.665-20.446-4.073-26.929-10.223c-6.982-6.15-14.212-17.786-21.693-34.908
		l-114.946-257.818c-0.831-2.493-2.909-3.823-6.234-3.989c-2.493,0.166-4.322,1.496-5.486,3.989l-64.579,133.896l-73.805-133.896
		c-1.995-2.493-3.989-3.823-5.984-3.989c-2.992,0.166-5.236,1.496-6.732,3.989l-112.951,257.818
		c-6.649,16.124-14.212,27.511-22.69,34.16c-7.48,6.15-18.036,9.807-31.666,10.971c-1.164,0.166-2.493,1.081-3.989,2.743
		c-0.665,1.496-1.164,2.992-1.496,4.488c0.333,3.823,1.662,5.735,3.99,5.735c9.641,0,20.03-0.416,31.168-1.247
		c5.153-0.665,10.057-1.122,14.711-1.371c4.654-0.249,9.475-0.374,14.462-0.374c9.143,0.166,19.864,0.748,32.165,1.745
		c12.966,0.831,24.518,1.247,34.658,1.247c2.161,0,3.241-1.912,3.241-5.735c0-3.99-0.665-6.067-1.995-6.234
		c-9.807-0.831-17.786-3.241-23.937-7.231c-3.158-2.992-5.319-5.818-6.483-8.478s-1.745-5.735-1.745-9.226
		c0.166-3.99,1.413-8.561,3.74-13.714l91.259-210.693l53.858,99.986l-48.871,103.227c-8.976,18.451-16.124,30.336-21.443,35.656
		c-3.158,2.66-6.815,4.779-10.971,6.358c-4.156,1.579-9.226,2.618-15.21,3.117c-1.164,0.166-2.161,1.081-2.992,2.743
		c-0.997,1.496-1.496,2.992-1.496,4.488c-0.166,4.156,0.748,6.067,2.743,5.735c9.974,0,19.282-0.416,27.926-1.247
		c7.979-0.997,16.706-1.579,26.181-1.745c8.976,0.166,18.368,0.748,28.175,1.745c10.472,0.831,20.695,1.247,30.669,1.247
		c2.66,0,3.989-1.912,3.989-5.735c0-3.99-0.831-6.067-2.493-6.234c-20.28-1.164-30.336-6.898-30.17-17.205
		c0-4.322,2.41-11.22,7.231-20.695l32.664-65.826l31.417,59.593c4.488,8.478,6.732,15.792,6.732,21.942
		c0.332,13.631-9.641,21.028-29.921,22.191c-1.662,0.166-2.577,2.244-2.743,6.234c0.166,1.496,0.582,2.992,1.247,4.488
		c0.997,0.831,1.912,1.247,2.743,1.247c7.48,0,16.207-0.416,26.181-1.247c9.974-0.997,18.285-1.579,24.934-1.745
		c4.488-0.166,11.22,0.416,20.197,1.745c11.968,0.831,21.693,1.247,29.173,1.247c1.496,0,2.493-1.745,2.992-5.236
		c0-4.488-1.829-6.732-5.486-6.732c-11.636-1.496-21.111-4.738-28.425-9.724c-7.148-5.319-16.124-17.204-26.929-35.656
		l-43.385-79.789l58.595-118.936l87.269,199.971c2.992,7.48,4.488,14.296,4.488,20.446c0.166,14.628-9.807,22.191-29.921,22.69
		c-1.662,0.166-2.577,2.327-2.743,6.483c0,1.662,0.166,3.158,0.499,4.488s1.33,1.995,2.992,1.995c7.148,0,15.958-0.416,26.43-1.247
		c8.976-0.997,16.706-1.579,23.189-1.745c6.483,0.166,14.212,0.748,23.189,1.745c8.81,0.831,16.623,1.247,23.438,1.247
		C-558.414,1653.934-557.084,1652.188-556.918,1648.698z"/>
</g>
</svg>
