<?xml version="1.0" encoding="utf-8"?>
<!-- Generator: Adobe Illustrator 17.0.2, SVG Export Plug-In . SVG Version: 6.00 Build 0)  -->
<!DOCTYPE svg PUBLIC "-//W3C//DTD SVG 1.1//EN" "http://www.w3.org/Graphics/SVG/1.1/DTD/svg11.dtd">
<svg version="1.1" id="Layer_1" xmlns="http://www.w3.org/2000/svg" xmlns:xlink="http://www.w3.org/1999/xlink" x="0px" y="0px"
	 width="512px" height="512px" viewBox="20.5 -199 512 512" enable-background="new 20.5 -199 512 512" xml:space="preserve">
<g transform="matrix(1 0 0 -1 0 1556)">
	<path d="M460.542,1347.085l-34.365-28.389l-90.404,89.244c-13.547-10.957-28.737-19.723-45.571-26.297s-34.614-9.861-53.341-9.861
		c-20.918,0-40.541,3.984-58.869,11.953c-18.328,7.969-34.465,18.926-48.41,32.871c-13.945,13.945-24.952,30.082-33.021,48.41
		s-12.103,38.051-12.103,59.168c0,20.719,4.034,40.342,12.103,58.869s19.075,34.764,33.021,48.709
		c13.945,13.945,30.082,24.952,48.41,33.021c18.328,8.068,37.951,12.103,58.869,12.103c21.316,0,41.288-4.084,59.915-12.252
		c18.627-8.168,34.863-19.175,48.709-33.021c13.846-13.846,24.803-30.132,32.871-48.858s12.103-38.648,12.103-59.766
		c0-30.68-7.969-58.072-23.906-82.178L460.542,1347.085z M236.86,1407.343c16.336,0,31.377,2.988,45.123,8.965
		c14.543,6.375,26.895,14.643,37.055,24.803c9.762,9.762,18.029,22.014,24.803,36.756c6.375,13.945,9.562,28.986,9.562,45.123
		c0,16.336-3.088,31.377-9.264,45.123c-6.574,14.543-14.941,26.795-25.102,36.756c-10.559,10.359-22.91,18.727-37.055,25.102
		c-13.746,6.176-28.787,9.264-45.123,9.264c-15.938,0-30.879-3.088-44.824-9.264c-14.344-6.375-26.695-14.742-37.055-25.102
		c-10.559-10.559-18.826-22.811-24.803-36.756c-5.977-13.945-8.965-28.986-8.965-45.123c0-16.336,2.988-31.377,8.965-45.123
		c6.176-14.145,14.443-26.396,24.803-36.756s22.661-18.577,36.905-24.653C206.131,1410.381,221.122,1407.343,236.86,1407.343z"/>
</g>
</svg>
