<?xml version="1.0" encoding="UTF-8" standalone="no"?>
<!-- Generator: Adobe Illustrator 17.0.2, SVG Export Plug-In . SVG Version: 6.00 Build 0)  -->

<svg
   xmlns:dc="http://purl.org/dc/elements/1.1/"
   xmlns:cc="http://creativecommons.org/ns#"
   xmlns:rdf="http://www.w3.org/1999/02/22-rdf-syntax-ns#"
   xmlns:svg="http://www.w3.org/2000/svg"
   xmlns="http://www.w3.org/2000/svg"
   xmlns:sodipodi="http://sodipodi.sourceforge.net/DTD/sodipodi-0.dtd"
   xmlns:inkscape="http://www.inkscape.org/namespaces/inkscape"
   version="1.1"
   id="Layer_1"
   x="0px"
   y="0px"
   width="512px"
   height="512px"
   viewBox="1641.5 340.5 512 512"
   enable-background="new 1641.5 340.5 512 512"
   xml:space="preserve"
   inkscape:version="0.48.4 r9939"
   sodipodi:docname="e956 IOS_WIKIGLYPH_STAR 0 0 -220.svg"><metadata
     id="metadata11"><rdf:RDF><cc:Work
         rdf:about=""><dc:format>image/svg+xml</dc:format><dc:type
           rdf:resource="http://purl.org/dc/dcmitype/StillImage" /></cc:Work></rdf:RDF></metadata><defs
     id="defs9" /><sodipodi:namedview
     pagecolor="#ffffff"
     bordercolor="#666666"
     borderopacity="1"
     objecttolerance="10"
     gridtolerance="10"
     guidetolerance="10"
     inkscape:pageopacity="0"
     inkscape:pageshadow="2"
     inkscape:window-width="1041"
     inkscape:window-height="527"
     id="namedview7"
     showgrid="false"
     inkscape:zoom="0.4609375"
     inkscape:cx="256"
     inkscape:cy="256"
     inkscape:window-x="75"
     inkscape:window-y="34"
     inkscape:window-maximized="0"
     inkscape:current-layer="Layer_1" /><g
     transform="translate(1593.9848,196.26102)"
     id="g3"><path
       style="fill:#f27072"
       inkscape:connector-curvature="0"
       d="M 450.2,228.3 C 398,204.2 329.8,226.9 305.7,278.9 281.6,226.9 213.3,204.1 161.2,228.3 105.6,254.1 79.1,319.9 123,397.5 154.2,452.8 209.4,494.4 305.7,569 402.1,494.4 457.3,452.7 488.4,397.5 532.3,319.9 505.8,254.1 450.2,228.3 z"
       id="path5" /><path
       style="fill:#f27072"
       inkscape:connector-curvature="0"
       d="M 305.7,589.2 285.9,573.9 C 195.4,503.8 140.8,461.5 109.1,405.4 92.5,376 75.8,331.2 90.8,284.5 c 10,-31.2 32.6,-56.3 63.7,-70.7 15.9,-7.4 33.3,-11.2 51.5,-11.2 23.5,0 46.6,6.3 66.8,18.1 12.9,7.6 24,17.1 32.9,28.1 8.9,-11 20,-20.6 32.9,-28.1 20.2,-11.8 43.3,-18.1 66.8,-18.1 18.2,0 35.6,3.7 51.5,11.1 31.1,14.4 53.7,39.5 63.7,70.7 8.3,25.8 11.8,67.6 -18.3,120.9 -31.7,56.3 -86.8,98.9 -178,169.4 l -18.6,14.5 z M 206,234.6 c -13.6,0 -26.4,2.8 -38.1,8.2 -22.9,10.6 -39.5,28.9 -46.7,51.5 -9.1,28.2 -3.6,61.2 15.7,95.3 28.5,50.6 81.2,91.4 168.6,159 l 0.2,0.2 C 396.1,478.9 446,440.2 474.5,389.7 c 19.3,-34.2 24.8,-67.1 15.7,-95.3 -7.3,-22.6 -23.8,-40.9 -46.7,-51.5 -11.7,-5.4 -24.5,-8.1 -38.1,-8.1 -36.8,0 -71.1,20.5 -85.2,51 L 305.7,317 291.2,285.7 C 277,255.1 242.8,234.6 206,234.6 z"
       id="path7" /></g></svg>