<?xml version="1.0" encoding="utf-8"?>
<!-- Generator: Adobe Illustrator 17.0.2, SVG Export Plug-In . SVG Version: 6.00 Build 0)  -->
<!DOCTYPE svg PUBLIC "-//W3C//DTD SVG 1.1//EN" "http://www.w3.org/Graphics/SVG/1.1/DTD/svg11.dtd">
<svg version="1.1" id="Layer_1" xmlns="http://www.w3.org/2000/svg" xmlns:xlink="http://www.w3.org/1999/xlink" x="0px" y="0px"
	 width="512px" height="512px" viewBox="-1065.5 340.5 512 512" enable-background="new -1065.5 340.5 512 512"
	 xml:space="preserve">
<path d="M-683.513,729.605c-34.091,34.091-79.484,52.865-127.817,52.865c-0.006,0-0.012,0-0.018,0
	c-48.352-0.004-93.754-18.781-127.844-52.871c-70.493-70.492-70.495-185.19-0.006-255.681
	c34.093-34.093,79.495-52.868,127.841-52.868c48.349,0,93.751,18.775,127.844,52.868l3.536,3.536l3.547-3.524l21.948-21.948
	l19.545,97.727l-97.727-19.545l25.568-25.568l-3.68-3.534c-26.779-26.78-62.521-41.562-100.581-41.562
	c-38.059,0-73.801,14.781-100.641,41.622c-26.838,26.838-41.618,62.578-41.616,100.638c0.002,38.059,14.783,73.8,41.622,100.638
	c26.843,26.844,62.585,41.627,100.643,41.627c38.056,0,73.795-14.781,100.634-41.621"/>
</svg>
